<?xml version="1.0" encoding="iso-8859-1"?>
<!-- Generator: Adobe Illustrator 19.0.0, SVG Export Plug-In . SVG Version: 6.00 Build 0)  -->
<svg version="1.1" id="Capa_1" xmlns="http://www.w3.org/2000/svg" xmlns:xlink="http://www.w3.org/1999/xlink" x="0px" y="0px"
	 viewBox="0 0 490.141 490.141" style="enable-background:new 0 0 490.141 490.141;" xml:space="preserve">
<g>
	<g>
		<g>
			<g>
				<path d="M346.9,379.874c0.2,0.1,11.3,3.7,24.3,11.3h-1h-304H33.8c-18.7,0-33.8-15.1-33.8-33.8v-20.8h27.3h1.5v-214.5
					c0-16.9,13.7-30.6,30.6-30.6H377c16.9,0,30.6,13.7,30.6,30.6v94.2c-1.8,0-3.6-0.1-5.4-0.1c-11.6,0-21.6,1-29.1,2.1
					c-2.3-3.8-4.7-7.6-7.1-11.4l0,0v-73.5H70.5v203.4h106.7v2.1c0,6.4,5.2,11.6,11.6,11.6h58.6c6.4,0,11.6-5.2,11.6-11.6v-2.1h21.4
					c7.7,4.4,15.4,9.7,23.4,16.2c2.1,1.8,4.7,3.6,7.3,5.6c2.8,2,5.6,4.1,7.5,5.9C328.7,373.374,339.1,377.374,346.9,379.874z
					 M484.9,336.874c-1.2-4.1-3.3-10.3-4.5-17.6c-1-27.9-12.5-57.7-16.9-68.5c-0.9-2.9-3.1-4.7-5.7-5.8
					c-48.6-17.1-94.4-4.9-94.4-4.9l-6.5-10.2c-5.1-8.5-10.5-16.6-15.6-25.1c-5.8-9.3-11.2-18.3-17-27.2c-4.1-6.4-11.8-8.4-18.1-5.1
					c-6.3,3.7-8.7,10.6-5.5,17.7c14,32.5,28.1,64.5,41.3,96.9c1.2,3.7,2.4,7.4,2.4,11.4c-0.1,7.9-1.9,14.5-9.1,10.9
					c-8.3-4.1-26.1-15.5-30.4-16.3c-6.9-1.9-14.4-3.1-21.8-0.3c-3.3,1.2-7.3,4.8-8.8,7.8c-3,6-1.9,10.1,4.2,12.8
					c13.6,6.2,26.2,14.7,37.9,24.3c4.4,3.6,11.1,7.9,15.4,12c6.5,5.9,13.3,9,21,11.4c0,0,30.3,9.6,53.4,31.5c7.6,7.2,19,8,27.5,2.5
					l51.6-33.8c4.3-3.1,6.1-8.9,3.9-13.9L484.9,336.874z"/>
			</g>
		</g>
	</g>
</g>
<g>
</g>
<g>
</g>
<g>
</g>
<g>
</g>
<g>
</g>
<g>
</g>
<g>
</g>
<g>
</g>
<g>
</g>
<g>
</g>
<g>
</g>
<g>
</g>
<g>
</g>
<g>
</g>
<g>
</g>
</svg>
